<svg xmlns="http://www.w3.org/2000/svg" width="256" height="256" viewBox="0 0 100 100"><rect width="100" height="100" rx="20" fill="#010004"></rect><path d="M43.92 56.79L43.92 56.79Q43.92 60.61 42.76 63.69Q41.60 66.76 39.31 68.94Q37.02 71.11 33.73 72.31Q30.43 73.51 26.15 73.51L26.15 73.51Q21.88 73.51 18.58 72.31Q15.28 71.11 13.03 68.94Q10.78 66.76 9.61 63.69Q8.45 60.61 8.45 56.79L8.45 56.79L8.45 27.09Q8.83 26.94 9.61 26.75Q10.40 26.56 11.30 26.56L11.30 26.56Q14.53 26.56 14.53 29.34L14.53 29.34L14.53 56.26Q14.53 59.26 15.43 61.51Q16.33 63.76 17.86 65.30Q19.40 66.84 21.54 67.59Q23.68 68.34 26.15 68.34L26.15 68.34Q28.63 68.34 30.76 67.59Q32.90 66.84 34.44 65.30Q35.98 63.76 36.88 61.51Q37.77 59.26 37.77 56.26L37.77 56.26L37.77 27.09Q38.15 26.94 38.94 26.75Q39.73 26.56 40.63 26.56L40.63 26.56Q43.92 26.56 43.92 29.34L43.92 29.34L43.92 56.79ZM76.55 71.94L76.55 71.94Q76.17 72.31 75.13 72.61Q74.08 72.91 72.80 72.91L72.80 72.91Q71.38 72.91 70.25 72.50Q69.13 72.09 68.75 71.26L68.75 71.26Q67.78 69.31 66.46 66.24Q65.15 63.16 63.69 59.37Q62.22 55.59 60.69 51.39Q59.15 47.19 57.72 43.06Q56.30 38.94 55.02 35.07Q53.75 31.21 52.85 28.14L52.85 28.14Q53.30 27.54 54.20 27.01Q55.10 26.49 56.23 26.49L56.23 26.49Q57.65 26.49 58.32 27.16Q59 27.84 59.45 29.19L59.45 29.19Q62.82 39.01 65.90 48.16Q68.97 57.31 72.65 66.76L72.65 66.76L72.95 66.76Q74.60 62.49 76.36 57.65Q78.13 52.81 79.81 47.67Q81.50 42.54 83.11 37.29Q84.72 32.04 86 27.01L86 27.01Q86.97 26.49 88.55 26.49L88.55 26.49Q89.90 26.49 90.72 27.16Q91.55 27.84 91.55 29.19L91.55 29.19Q91.55 30.31 90.69 33.42Q89.82 36.54 88.47 40.66Q87.13 44.79 85.44 49.51Q83.75 54.24 82.10 58.59Q80.45 62.94 78.95 66.54Q77.45 70.14 76.55 71.94Z" fill="#f4e909"></path></svg>